PathFileType	4	(X/Y/Z)	C:/Users/CLatella/Desktop/xsens/7Novembre/Claudia/Claudia mvnx and c3d/Claudia-022.trc	
DataRate	CameraRate	NumFrames	NumMarkers	Units	OrigDataRate	OrigDataStartFrame	OrigNumFrames	
240.00	240.00	4	64	mm	240.00	835	1113	
Frame#	Time	pHipOrigin			pRightASI			pLeftASI			pRightCSI			pLeftCSI			pRightIschialTub			pLeftIschialTub			pSacrum			pL5SpinalProcess			pL3SpinalProcess			pT12SpinalProcess			pPX			pIJ			pT4SpinalProcess			pT8SpinalProcess			pC7SpinalProcess			pTopOfHead			pRightAuricularis			pLeftAuricularis			pBackOfHead			pRightAcromion			pLeftAcromion			pRightArmLatEpicondyle			pRightArmMedEpicondyle			pLeftArmLatEpicondyle			pLeftArmMedEpicondyle			pRightUlnarStyloid			pRightRadialStyloid			pRightOlecranon			pLeftUlnarStyloid			pLeftRadialStyloid			pLeftOlecranon			pRightTopOfHand			pRightPinky			pRightBallHand			pLeftTopOfHand			pLeftPinky			pLeftBallHand			pRightGreaterTrochanter			pRightKneeLatEpicondyle			pRightKneeMedEpicondyle			pRightPatella			pLeftGreaterTrochanter			pLeftKneeLatEpicondyle			pLeftKneeMedEpicondyle			pLeftPatella			pRightLatMalleolus			pRightMedMalleolus			pRightTibialTub			pLeftLatMalleolus			pLeftMedMalleolus			pLeftTibialTub			pRightHeelFoot			pRightFirstMetatarsal			pRightFifthMetatarsal			pRightPivotFoot			pRightHeelCenter			pRightToe			pLeftHeelFoot			pLeftFirstMetatarsal			pLeftFifthMetatarsal			pLeftPivotFoot			pLeftHeelCenter			pLeftToe			
		X1	Y1	Z1	X2	Y2	Z2	X3	Y3	Z3	X4	Y4	Z4	X5	Y5	Z5	X6	Y6	Z6	X7	Y7	Z7	X8	Y8	Z8	X9	Y9	Z9	X10	Y10	Z10	X11	Y11	Z11	X12	Y12	Z12	X13	Y13	Z13	X14	Y14	Z14	X15	Y15	Z15	X16	Y16	Z16	X17	Y17	Z17	X18	Y18	Z18	X19	Y19	Z19	X20	Y20	Z20	X21	Y21	Z21	X22	Y22	Z22	X23	Y23	Z23	X24	Y24	Z24	X25	Y25	Z25	X26	Y26	Z26	X27	Y27	Z27	X28	Y28	Z28	X29	Y29	Z29	X30	Y30	Z30	X31	Y31	Z31	X32	Y32	Z32	X33	Y33	Z33	X34	Y34	Z34	X35	Y35	Z35	X36	Y36	Z36	X37	Y37	Z37	X38	Y38	Z38	X39	Y39	Z39	X40	Y40	Z40	X41	Y41	Z41	X42	Y42	Z42	X43	Y43	Z43	X44	Y44	Z44	X45	Y45	Z45	X46	Y46	Z46	X47	Y47	Z47	X48	Y48	Z48	X49	Y49	Z49	X50	Y50	Z50	X51	Y51	Z51	X52	Y52	Z52	X53	Y53	Z53	X54	Y54	Z54	X55	Y55	Z55	X56	Y56	Z56	X57	Y57	Z57	X58	Y58	Z58	X59	Y59	Z59	X60	Y60	Z60	X61	Y61	Z61	X62	Y62	Z62	X63	Y63	Z63	X64	Y64	Z64	

835	3.475	19.00556	210.53940	934.28181	111.02416	98.08982	990.55939	92.07139	337.40154	987.44459	94.81664	117.88728	1069.69644	79.03147	317.39290	1067.05678	-40.91475	155.15931	903.34497	-48.78095	254.93851	902.07794	-40.59799	206.31595	975.46053	12.40641	211.96482	1036.06716	43.23766	214.81566	1144.29328	72.48511	216.98018	1239.10992	244.80221	222.52347	1281.08054	279.54016	223.79051	1396.59213	132.40542	219.67263	1416.75914	103.47473	218.61677	1333.24025	149.93278	221.41481	1466.91271	329.21859	227.16927	1674.91804	262.11839	154.84255	1595.62261	270.03738	295.11416	1585.96145	214.28772	229.17542	1609.71840	180.28888	27.82203	1431.43566	162.02243	417.64725	1405.14463	225.74386	39.17258	1091.92239	215.39638	103.36915	1093.77016	184.88189	373.03697	1064.41712	188.20787	308.84040	1074.13108	253.19634	26.44941	853.08582	290.20439	60.02590	855.25034	202.46204	52.00133	1091.71122	190.37239	350.65264	823.52161	239.89244	344.84538	827.21713	161.65287	346.37639	1067.10958	327.58200	-33.84046	697.87372	273.15218	-26.66058	766.24095	261.43208	22.06757	819.98446	270.56531	399.01124	658.59555	257.94773	412.73748	744.27897	222.10112	378.94981	798.86717	40.49241	59.12842	910.68323	18.37204	48.25301	521.17478	3.00921	121.95236	514.15328	51.57899	96.24206	517.79601	-1.00307	362.05598	908.14916	-59.12842	355.98476	522.28343	-47.51391	281.54630	515.78987	-11.24496	323.09457	515.42031	13.14551	40.22844	111.92165	15.62680	100.25435	109.12361	74.59684	85.20827	486.64800	-61.18735	371.82272	113.66383	-51.94854	312.48313	109.80992	10.29468	328.21552	486.75359	-30.72566	67.52254	7.17988	136.15374	89.32615	0.00000	128.81548	12.03686	5.22653	154.57858	49.57284	1.84776	10.98099	63.14070	0.58073	220.99246	43.23766	1.10866	-102.47166	335.55378	8.86926	65.56919	344.10628	0.00000	44.45190	418.91429	4.64580	76.49739	386.49924	1.37262	-62.24322	347.32667	1.74218	140.74675	404.71291	-0.10559 
836	3.479	19.16394	210.48661	934.28181	111.02416	98.08982	990.66498	92.12419	337.40154	987.55018	94.76385	117.83449	1069.74924	78.97867	317.39290	1067.16237	-40.70358	155.15931	903.23939	-48.62257	254.93851	901.91956	-40.54520	206.31595	975.30215	12.40641	211.91203	1036.01436	43.02648	214.76286	1144.29328	72.06276	216.92739	1239.16271	244.32707	222.52347	1281.50289	278.80105	223.79051	1397.12006	131.66632	219.67263	1416.97032	102.89401	218.61677	1333.34584	149.08808	221.41481	1467.12389	327.89876	227.22207	1675.49877	261.00973	154.84255	1596.04496	268.92872	295.16695	1586.43659	213.12627	229.22821	1610.03516	179.44419	27.82203	1431.69963	161.33611	417.70004	1405.35581	225.63827	39.33096	1092.23915	215.29080	103.47473	1094.08692	184.82910	372.87859	1064.68109	188.10228	308.68202	1074.44783	253.51309	26.66058	853.45537	290.52115	60.23708	855.72548	202.35645	52.10692	1091.97519	190.63636	350.38867	823.83837	240.15641	344.52862	827.58669	161.60008	346.16521	1067.32075	328.21552	-33.62929	698.34886	273.62732	-26.44941	766.61051	261.80163	22.22595	820.35401	271.04045	398.64169	658.96511	258.26449	412.42072	744.64852	222.36509	378.63305	799.18393	40.59799	59.07563	910.68323	18.37204	48.20022	521.17478	3.06201	121.89957	514.10048	51.68457	96.13647	517.74322	-0.89748	362.05598	908.14916	-59.07563	355.93196	522.28343	-47.40832	281.54630	515.78987	-11.19216	323.04178	515.42031	13.14551	40.17565	111.86886	15.62680	100.20155	109.07081	74.64963	85.15548	486.59521	-61.24015	371.76993	113.61103	-52.00133	312.48313	109.75713	10.34747	328.21552	486.70080	-30.72566	67.52254	7.12709	136.15374	89.32615	0.00000	128.81548	11.98406	5.17374	154.57858	49.57284	1.84776	10.92820	63.08791	0.52793	220.99246	43.23766	1.10866	-102.47166	335.55378	8.86926	65.51640	344.10628	0.00000	44.39911	418.91429	4.64580	76.49739	386.55204	1.31983	-62.29601	347.32667	1.74218	140.74675	404.76570	-0.15838 
837	3.483	19.26953	210.48661	934.22901	111.12975	98.03703	990.77056	92.22977	337.34875	987.65576	94.71106	117.78170	1069.80203	78.92588	317.34011	1067.21516	-40.49241	155.15931	903.13380	-48.41139	254.93851	901.81397	-40.43961	206.31595	975.19656	12.35362	211.91203	1035.96157	42.86810	214.76286	1144.29328	71.69321	216.92739	1239.26830	243.90473	222.47067	1281.92523	278.11474	223.79051	1397.59520	130.87442	219.67263	1417.12870	102.31328	218.61677	1333.50422	148.19060	221.46760	1467.38785	326.63172	227.27486	1676.07949	259.90108	154.89534	1596.52009	267.82006	295.21975	1586.91173	211.96482	229.28100	1610.40471	178.65229	27.82203	1431.91080	160.64980	417.70004	1405.56698	225.58548	39.43654	1092.55591	215.18521	103.58032	1094.45647	184.82910	372.66742	1064.94505	188.04949	308.47085	1074.76459	253.88265	26.81896	853.82492	290.83791	60.44825	856.14782	202.30366	52.21251	1092.29195	190.90032	350.07191	824.10233	240.42037	344.21187	827.90345	161.54729	345.95404	1067.58471	328.79624	-33.47091	698.87679	274.10245	-26.29103	767.03285	262.17118	22.38433	820.77636	271.46279	398.27213	659.33466	258.63404	412.10396	745.01807	222.68185	378.31629	799.50069	40.70358	59.07563	910.63044	18.47763	48.14743	521.17478	3.16759	121.84678	514.10048	51.73737	96.08368	517.74322	-0.73911	362.00318	908.14916	-58.97004	355.93196	522.28343	-47.35553	281.49351	515.78987	-11.13937	323.04178	515.42031	13.09272	40.17565	111.86886	15.62680	100.20155	109.07081	74.75521	85.04989	486.54242	-61.24015	371.76993	113.66383	-52.00133	312.48313	109.75713	10.40027	328.16272	486.70080	-30.72566	67.46975	7.12709	136.15374	89.27335	-0.05279	128.81548	11.93127	5.17374	154.57858	49.52005	1.84776	10.92820	63.08791	0.52793	220.99246	43.23766	1.10866	-102.47166	335.50098	8.86926	65.51640	344.15907	0.00000	44.34631	418.91429	4.64580	76.44460	386.60483	1.31983	-62.29601	347.32667	1.74218	140.69396	404.87129	-0.15838 
838	3.488	19.42791	210.48661	934.22901	111.18254	98.03703	990.82336	92.28257	337.34875	987.76135	94.65826	117.78170	1069.85482	78.87309	317.28732	1067.32075	-40.33403	155.15931	902.97542	-48.20022	254.93851	901.70838	-40.33403	206.31595	975.09097	12.35362	211.85924	1035.90878	42.65693	214.71007	1144.29328	71.32365	216.92739	1239.32109	243.42959	222.47067	1282.34758	277.37563	223.84330	1398.07034	130.13531	219.72543	1417.28708	101.78535	218.66956	1333.60980	147.34591	221.52040	1467.59902	325.41748	227.38045	1676.60743	258.79242	155.00093	1596.94244	266.71140	295.27254	1587.33407	210.80337	229.33379	1610.77427	177.86039	27.82203	1432.12197	159.91070	417.70004	1405.77815	225.53268	39.54213	1092.92547	215.13242	103.73870	1094.77323	184.82910	372.50904	1065.20902	188.04949	308.31247	1075.08135	254.19941	26.97734	854.24727	291.15467	60.60663	856.57017	202.25087	52.37089	1092.60871	191.16429	349.80795	824.41909	240.68434	343.94790	828.27300	161.54729	345.84846	1067.84868	329.37697	-33.20694	699.35193	274.57759	-26.13265	767.45520	262.54074	22.59550	821.14591	271.88514	398.00817	659.70421	259.00359	411.83999	745.33483	222.94581	378.05233	799.81745	40.80917	59.07563	910.63044	18.53042	48.09463	521.12198	3.22039	121.79398	514.04769	51.79016	96.03089	517.69042	-0.58073	362.05598	908.14916	-58.86445	355.87917	522.28343	-47.24994	281.49351	515.78987	-11.03379	322.98899	515.36752	13.09272	40.12286	111.81606	15.62680	100.14876	109.07081	74.80801	84.99710	486.54242	-61.24015	371.76993	113.66383	-52.00133	312.48313	109.75713	10.45306	328.16272	486.70080	-30.72566	67.46975	7.07429	136.15374	89.27335	-0.05279	128.81548	11.93127	5.12094	154.57858	49.52005	1.79497	10.92820	63.03512	0.47514	220.99246	43.18486	1.10866	-102.52445	335.50098	8.86926	65.51640	344.15907	0.00000	44.34631	418.96708	4.64580	76.44460	386.60483	1.31983	-62.29601	347.32667	1.74218	140.69396	404.92408	-0.15838 
